<svg width="84" height="96" viewBox="0 0 84 96" fill="none" xmlns="http://www.w3.org/2000/svg">
<path d="M83.7662 0.0808105L76.1349 85.5709L41.8318 95.0808L7.62323 85.5843L0 0.0808105H83.7662Z" fill="#264DE4"/>
<path d="M69.6018 80.1274L76.1233 7.07227H41.8833V87.8121L69.6018 80.1274Z" fill="#2965F1"/>
<path d="M17.4766 38.784L18.4164 49.2705H41.8836V38.784H17.4766Z" fill="#EBEBEB"/>
<path d="M41.8834 17.5583H41.8472H15.5879L16.5412 28.0451H41.8834V17.5583Z" fill="#EBEBEB"/>
<path d="M41.8833 76.9292V66.0187L41.8374 66.0309L30.1583 62.8773L29.4117 54.5137H23.7366H18.8848L20.3539 70.9793L41.8351 76.9426L41.8833 76.9292Z" fill="#EBEBEB"/>
<path d="M54.7598 49.2701L53.5426 62.8705L41.8467 66.0273V76.9374L63.3449 70.9792L63.5026 69.2075L65.9669 41.5996L66.2227 38.7836L68.1159 17.5583H41.8467V28.0451H56.6234L55.6692 38.7836H41.8467V49.2701H54.7598Z" fill="white"/>
</svg>
