<svg width="95" height="96" viewBox="0 0 95 96" fill="none" xmlns="http://www.w3.org/2000/svg">
<path d="M95 0.0808105H0V95.0808H95V0.0808105Z" fill="#F7DF1E"/>
<path d="M63.8159 74.3C65.7295 77.4245 68.2191 79.721 72.6222 79.721C76.3212 79.721 78.6841 77.8723 78.6841 75.3179C78.6841 72.2568 76.2564 71.1726 72.1849 69.3917L69.9532 68.4341C63.5113 65.6897 59.2318 62.2516 59.2318 54.9833C59.2318 48.2881 64.3331 43.1913 72.3056 43.1913C77.9814 43.1913 82.0619 45.1667 85.0024 50.3389L78.0508 54.8024C76.5203 52.058 74.8691 50.9768 72.3056 50.9768C69.6908 50.9768 68.0336 52.6355 68.0336 54.8024C68.0336 57.4805 69.6923 58.5647 73.5225 60.2234L75.7542 61.1795C83.3391 64.4321 87.6217 67.748 87.6217 75.2033C87.6217 83.2406 81.308 87.6437 72.8288 87.6437C64.5382 87.6437 59.182 83.693 56.5612 78.5147L63.8159 74.3ZM32.2804 75.0736C33.6828 77.5617 34.9585 79.6653 38.0257 79.6653C40.9586 79.6653 42.8088 78.5177 42.8088 74.0557V43.701H51.7358V74.1764C51.7358 83.42 46.3163 87.6272 38.4057 87.6272C31.258 87.6272 27.1188 83.9282 25.0137 79.473L32.2804 75.0736Z" fill="black"/>
</svg>
